PathFileType	4	(X/Y/Z)	C:/Users/beibeiliu/ov580/test_trc/User3\sequence.30_training_dense_left.trc
DataRate	CameraRate	NumFrames	NumMarkers	Units	OrigDataRate	OrigDataStartFrame	OrigNumFrames
120	120	19	19	mm	120	50	74
Frame#	Time	ThumbCMC			ThumbMCP			ThumbIP			ThumbTip			IndexMCP			IndexPIP			IndexTip			MiddleMCP			MiddlePIP			MiddleTip			RingMCP			RingPIP			RingTip			PinkyMCP			PinkyPIP			PinkyTip			BackHand1			BackHand2			BackHand3	
		X0	Y0	Z0	X1	Y1	Z1	X2	Y2	Z2	X3	Y3	Z3	X4	Y4	Z4	X5	Y5	Z5	X6	Y6	Z6	X7	Y7	Z7	X8	Y8	Z8	X9	Y9	Z9	X10	Y10	Z10	X11	Y11	Z11	X12	Y12	Z12	X13	Y13	Z13	X14	Y14	Z14	X15	Y15	Z15	X16	Y16	Z16	X17	Y17	Z17	X18	Y18	Z18	
49	0.408333	-212.02	21.3598	-19.2593	-207.913	15.6879	-45.5422	-201.931	15.5023	-75.397	-205.323	9.83596	-100.531	-266.266	48.5261	-71.0936	-272.409	49.5114	-100.652	-272.971	38.1281	-124.633	-286.852	35.1502	-70.1075	-291.713	24.0785	-100.649	-280.41	-8.5149	-119.657	-297.508	16.0306	-61.2203	-299.262	1.26006	-89.277	-286.232	-24.3684	-101.106	-300.138	-0.653043	-43.5596	-304.298	-12.6351	-69.3404	-292.562	-35.4511	-85.5266	-281.168	22.3149	-7.57348	-266.067	15.4881	17.5877	-248.32	34.9053	-3.98472	
50	0.416667	-227.468	8.83974	-14.9402	-228.963	6.67175	-48.7986	-232.34	3.83533	-76.9345	-240.638	-3.34685	-101.133	-289.554	27.6624	-60.349	-305.194	20.5419	-90.4536	-298.226	6.44967	-113.374	-307.136	10.1805	-61.2805	-307.703	-5.31304	-91.6254	-285.906	-33.6521	-98.2776	-311.79	-8.23955	-50.6416	-309.338	-30.0833	-77.2474	-282.04	-49.6408	-79.8943	-315.356	-26.5994	-38.0267	-314.176	-41.5362	-59.2614	-290.247	-53.4723	-69.0225	-292.873	-0.270651	3.80778	-278.416	-5.26245	26.4914	-264.761	18.515	2.4879	
51	0.425	-230.356	2.74745	-16.1922	-233.749	3.46396	-50.8309	-247.935	-3.31551	-76.3715	-264.081	-14.1919	-97.6265	-301.733	10.8997	-55.7843	-309.922	1.42956	-85.3511	-296.859	-18.7895	-106.277	-310.325	-8.39864	-55.6083	-305.522	-22.4157	-84.4754	-271.198	-50.1438	-82.2024	-310.658	-25.8023	-47.3772	-299.866	-45.6554	-71.2663	-272.477	-60.0328	-65.1254	-313.023	-45.716	-30.6384	-300.938	-57.7044	-56.1614	-273.768	-60.4373	-53.8187	-291.882	-15.092	7.096	-272.853	-22.6197	30.3666	-265.705	8.66243	5.25055	
52	0.433333	-234.536	2.33934	-14.934	-236.672	5.08418	-45.9621	-254.468	2.32061	-79.0483	-268.407	-12.9501	-92.2338	-302.345	6.25024	-50.8055	-308.215	-3.15537	-81.4279	-288.89	-21.8238	-100.089	-309.154	-16.4801	-56.0515	-297.173	-28.1926	-81.6138	-259.331	-43.5839	-78.3155	-305.943	-35.3501	-42.5834	-289.004	-48.7874	-67.0332	-257.674	-57.0726	-57.0651	-305.24	-51.2868	-32.9088	-286.853	-60.344	-53.8412	-257.032	-62.2074	-44.8353	-289.265	-20.4404	8.03053	-267.102	-27.4222	34.3003	-265.528	5.71484	6.90947	
53	0.441667	-221.6	6.944	-10.7204	-226.939	11.1773	-46.5042	-236.696	8.29996	-76.7145	-249.724	-8.33131	-89.1491	-287.33	10.2679	-54.4427	-286.767	0.887743	-87.3253	-265.547	-13.1505	-101.308	-289.596	-10.6491	-61.8271	-271.851	-27.4327	-84.8317	-237.77	-40.1975	-74.2181	-286.748	-29.1892	-51.5688	-267.451	-46.0051	-67.3275	-237.66	-49.8203	-57.1903	-287.885	-46.1198	-39.5711	-265.027	-54.1964	-55.8762	-238.758	-54.815	-43.745	-281.683	-20.8882	10.0396	-262.061	-24.4353	31.1081	-257.533	8.7981	7.03258	
54	0.45	-202.286	14.4184	-7.95155	-193.949	14.6946	-37.0359	-193.261	11.86	-69.7715	-201.997	-7.79688	-84.4329	-248.273	11.6794	-67.3117	-234.087	0.795609	-98.5748	-209.556	-11.4708	-101.346	-249.66	-13.2181	-70.3932	-220.946	-24.8184	-87.3807	-190.122	-34.0146	-67.1397	-247.565	-31.9707	-59.1184	-219.103	-45.852	-67.8435	-195.688	-43.7339	-49.014	-246.648	-46.1688	-51.5052	-220.916	-51.813	-56.0167	-201.16	-46.9609	-35.9404	-262.298	-17.5542	-4.47112	-247.915	-22.7257	24.6097	-237.913	11.5491	2.39215	
55	0.458333	-174.908	20.3079	-1.42249	-152.128	22.8618	-27.9038	-139.828	14.5124	-52.4231	-133.997	-5.0597	-71.7576	-188.661	8.94196	-73.6533	-161.96	0.0988397	-94.0667	-133.916	-8.67871	-85.6434	-184.582	-11.9422	-76.7918	-150.686	-20.4642	-82.0282	-130.17	-27.8677	-54.0176	-186.977	-28.8593	-64.3263	-152.452	-40.7037	-60.7545	-139.152	-35.9675	-34.968	-187.81	-48.2417	-54.5174	-161.699	-47.7411	-51.3406	-148.646	-40.3008	-20.9875	-221.731	-16.7853	-21.2819	-223.535	-16.4034	8.11249	-212.915	13.8732	-6.07625	
56	0.466667	-147.615	33.9395	-5.51864	-117.417	37.7348	-20.0011	-93.37	30.9671	-38.405	-78.9915	13.0726	-49.4339	-129.203	15.0281	-75.7963	-98.3591	11.2013	-82.695	-74.065	8.5938	-67.0336	-123.351	-6.58025	-75.5267	-90.4144	-11.3931	-67.946	-76.7435	-12.5479	-33.1535	-129.575	-23.7373	-62.0007	-96.6047	-29.0965	-50.3017	-90.0226	-18.2237	-21.1562	-135.002	-39.7885	-50.2486	-107.662	-39.1576	-43.5723	-101.654	-27.2323	-13.5424	-177.85	-18.5099	-37.7275	-193.702	-15.2698	-5.85862	-176.401	19.1564	-23.923	
57	0.475	-129.01	50.4126	-10.8587	-99.1376	55.5019	-24.2532	-72.2382	48.561	-42.2782	-55.5048	36.4542	-51.2059	-97.3573	33.0406	-82.5735	-67.8147	28.2318	-86.8379	-44.0087	29.5611	-67.7886	-94.1482	11.1698	-82.9329	-63.5972	9.5609	-78.637	-47.4309	10.7295	-39.5168	-95.6369	-5.35388	-72.6612	-66.2704	-7.42093	-63.0158	-60.4874	-0.426556	-34.3075	-104.373	-23.9934	-57.9374	-75.0183	-23.3269	-49.6686	-69.3487	-11.0008	-24.1833	-148.472	-2.57243	-44.0962	-166.607	3.73626	-20.4345	-154.233	33.0516	-34.1108	
58	0.483333	-123.312	75.6663	-26.4057	-98.0219	77.7209	-46.4455	-77.1171	79.2254	-66.4397	-60.2661	68.6502	-85.3859	-114.901	60.6637	-103.862	-88.3365	57.6987	-121.771	-56.0525	53.845	-108.864	-112.344	38.6267	-108.163	-76.2842	36.2782	-115.299	-53.0892	33.704	-85.4134	-113.396	20.0031	-99.037	-80.4455	15.1438	-102.81	-64.4772	19.2264	-78.3659	-115.278	-0.134137	-85.4435	-87.9855	-0.170217	-90.5711	-70.4649	8.91765	-65.0644	-150.57	26.2199	-61.2554	-163.496	23.947	-30.1808	-153.425	55.7538	-47.2529	
59	0.491667	-122.897	90.2039	-42.995	-105.051	93.4298	-69.4708	-90.6745	97.7749	-94.2045	-81.3198	91.2651	-117.801	-147.343	90.8891	-123.128	-132.425	91.4874	-151.229	-110.313	79.5906	-160.14	-154.98	65.802	-130.653	-135.054	63.0216	-154.738	-100.501	46.146	-148.984	-155.052	45.7719	-123.565	-131.776	38.8672	-144.046	-101.515	29.7608	-132.573	-154.854	23.9834	-105.858	-133.497	16.58	-128.203	-109.561	17.0776	-120.736	-172.098	46.2714	-67.0111	-174.523	45.4421	-39.3718	-160.385	81.8043	-54.7755	
60	0.5	-122.881	92.5465	-52.7889	-107.818	95.8437	-78.6298	-92.0021	102.378	-107.722	-86.3367	98.8279	-127.611	-160.42	103.565	-120.783	-160.308	109.229	-152.291	-147.997	99.6727	-181.193	-177.61	89.6048	-130.202	-174.784	84.4199	-159.959	-147.989	65.0052	-184.89	-185.302	65.6558	-124.383	-179.782	55.5024	-153.682	-156.444	42.0552	-166.471	-186.058	43.5569	-111.072	-183.09	31.9434	-136.331	-163.011	20.3203	-150.827	-184.673	67.6779	-72.9763	-180.754	63.2763	-39.7744	-163.99	88.3316	-58.4949	
61	0.508333	-125.677	88.5263	-55.0687	-108.79	92.2249	-78.7825	-93.9128	96.9237	-103.837	-84.6846	97.3811	-127.595	-168.817	102.69	-119.827	-169.892	110.892	-150.078	-163.805	111.232	-177.525	-188.463	91.022	-128.451	-190.818	87.6721	-159.052	-180.831	75.5438	-189.988	-199.434	67.2597	-118.48	-200.135	64.3032	-148.787	-190.651	46.4126	-172.711	-205.094	46.1637	-107.181	-205.79	39.3198	-132.313	-195.174	28.6426	-151.857	-193.457	69.8469	-69.2874	-187.096	66.1321	-39.721	-164.533	93.7926	-54.7654	
62	0.516667	-127.84	82.188	-50.2923	-111.503	86.5813	-77.8987	-98.2587	88.7474	-99.1283	-88.8337	89.7981	-124.327	-169.821	99.5257	-119.519	-169.864	106.191	-144.756	-169.733	104.677	-174.515	-190.922	86.1032	-122.117	-193.263	85.9174	-154.784	-193.681	75.137	-183.994	-203.445	65.1134	-115.104	-205.871	64.0837	-141.233	-203.061	48.7663	-169.484	-209.052	45.6281	-99.2099	-214.877	39.068	-123.518	-212.936	28.6783	-147.572	-194.097	69.9237	-58.678	-187.471	65.7402	-33.4437	-166.765	88.0589	-51.9888	
63	0.525	-128.82	72.0577	-46.726	-111.581	74.8866	-71.4479	-98.6648	76.5973	-95.9199	-89.508	75.1624	-119.37	-165.894	94.3778	-113.934	-165.407	100.832	-143.016	-163.406	100.96	-169.663	-191.808	84.4786	-118.011	-193.351	85.5388	-145.665	-192.087	77.7381	-179.181	-203.636	66.817	-105.849	-208.835	65.7711	-135.992	-211.307	53.5195	-161.123	-210.998	49.3324	-90.6554	-222.012	43.4983	-114.761	-220.606	37.384	-140.492	-193.669	69.5267	-54.8309	-193.303	63.2696	-24.7831	-165.6	85.8193	-48.5646	
64	0.533333	-129.846	62.5897	-43.2919	-109.246	60.6637	-64.1173	-93.5781	62.7069	-94.5392	-88.0757	57.5436	-113.265	-160.284	90.2507	-111.877	-156.91	95.3703	-140.177	-153.017	94.8795	-162.335	-184.539	86.8643	-112.656	-189.701	86.0602	-143.538	-191.536	78.2046	-174.961	-205.133	71.509	-102.8	-209.428	71.111	-129.001	-211.081	60.3594	-156.997	-212.238	55.5553	-87.2206	-223.978	53.6604	-110.354	-229.937	44.4076	-132.218	-193.752	71.2165	-49.8978	-189.624	65.1311	-21.8533	-160	79.5393	-43.7719	
65	0.541667	-123.457	50.412	-38.2981	-104.37	47.016	-64.1055	-90.5973	41.4667	-84.0935	-81.7894	37.868	-106.684	-147.176	79.2037	-104.331	-145.424	82.1173	-135.826	-142.922	81.8305	-162.676	-172.793	81.5966	-110.069	-179.915	80.3614	-139.308	-183.572	73.5012	-167.597	-191.561	71.8181	-100.733	-199.539	70.9147	-127.632	-206.461	60.6059	-152.511	-207.617	59.3864	-85.4831	-220.441	56.9102	-105.479	-220.873	51.8402	-130.249	-184.768	69.8819	-44.7138	-185.544	68.3201	-19.6067	-153.54	74.2632	-38.4804	
66	0.55	-112.609	39.0245	-31.9112	-93.7828	32.65	-53.2332	-81.5374	25.993	-79.494	-71.2945	19.249	-99.1448	-133.927	65.5425	-99.6491	-131.053	67.1268	-129.774	-129.28	63.0573	-157.013	-162.391	70.0667	-106.701	-161.817	68.612	-132.279	-169.051	56.7854	-166.261	-181.449	62.7396	-96.3682	-190.259	61.8844	-121.934	-192.959	51.4364	-145.679	-198.036	52.2537	-76.1566	-205.784	50.989	-100.562	-214.855	41.7327	-122.927	-172.57	65.6696	-40.4768	-173.513	62.1058	-15.4268	-140.537	66.1186	-33.7604	
67	0.558333	-99.3684	28.4635	-24.5419	-82.7365	19.4099	-45.4863	-68.0475	12.1707	-72.4459	-64.3182	3.97011	-93.9751	-125.317	49.5114	-94.7331	-120.007	48.7734	-123.002	-117.84	43.5194	-149.342	-151.124	51.5261	-99.3037	-153.392	48.1668	-129.164	-158.009	36.4009	-157.412	-169.292	45.9091	-89.591	-176.095	41.4591	-118.207	-179.643	29.2967	-141.551	-187.003	36.8561	-74.4373	-195.026	32.6857	-97.1206	-197.651	21.2277	-119.909	-162.215	53.5284	-35.3013	-160.177	50.1114	-10.5055	-128.809	53.1275	-28.8473	
